<svg xmlns="http://www.w3.org/2000/svg" viewBox="0 0 512 512">
  <rect width="512" height="512" rx="80" fill="#1a1d27"/>
  <path d="M256 120c-75 0-136 61-136 136s61 136 136 136 136-61 136-136-61-136-136-136zm0 40c53 0 96 43 96 96s-43 96-96 96-96-43-96-96 43-96 96-96z" fill="#6c8cff"/>
  <path d="M256 200c-31 0-56 25-56 56s25 56 56 56 56-25 56-56-25-56-56-56z" fill="#6c8cff"/>
  <path d="M340 180l40-40m-248 0l40 40m84-60v-56" stroke="#4ade80" stroke-width="16" stroke-linecap="round" fill="none"/>
</svg>
